Coordinates
version=1
nRows=9
nColumns=36
inDegrees=yes

Units are S.I. units (second, meters, Newtons, ...)
If the header above contains a line with 'inDegrees', this indicates whether rotational values are in degrees (yes) or radians (no).

endheader
time	pelvis_tilt	pelvis_list	pelvis_rotation	pelvis_tx	pelvis_ty	pelvis_tz	hip_flexion_r	hip_adduction_r	hip_rotation_r	knee_angle_r	knee_angle_r_beta	ankle_angle_r	subtalar_angle_r	mtp_angle_r	hip_flexion_l	hip_adduction_l	hip_rotation_l	knee_angle_l	knee_angle_l_beta	ankle_angle_l	subtalar_angle_l	mtp_angle_l	lumbar_extension	lumbar_bending	lumbar_rotation	arm_flex_r	arm_add_r	arm_rot_r	elbow_flex_r	pro_sup_r	arm_flex_l	arm_add_l	arm_rot_l	elbow_flex_l	pro_sup_l
      0.00000000	      9.27085978	     -1.90688569	     -1.14324487	     -0.87049669	      1.29353098	     -0.10449705	    -16.54178721	      0.44855088	     -5.12003344	      2.57436789	      0.04493120	     -6.43643607	    -18.76947194	     -6.58714841	    -15.74473653	     -2.07362604	      1.98551335	      3.09924104	      0.05409196	      4.36194599	     -3.65147924	     -6.58714841	    -19.84937245	      3.04670472	     -2.03247899	     23.75136797	     -7.73582556	     30.45305414	     42.04762418	     77.50375989	     21.56235567	     -3.24186770	     28.82638680	     30.77870304	     68.97753311
      0.00416670	      9.66258813	     -0.54208435	     -0.21519919	     -0.87101272	      1.29189435	     -0.10410082	    -16.85569124	     -0.03485782	     -5.38035796	      1.81246953	      0.03163356	     -1.42961195	    -12.85772907	     -6.79354018	    -16.41840251	     -0.74485733	      3.88690317	      2.58605525	      0.04513518	      3.10732744	     -3.64788471	     -6.79354018	    -20.80560112	      2.02191405	     -2.46095105	     24.69479768	     -7.53959363	     31.81599778	     41.60054459	     77.58211568	     23.66212017	     -3.52241953	     29.95501323	     29.69217251	     70.09007280
      0.00833330	      8.42931077	      0.40607926	     -0.34319586	     -0.87061497	      1.29160822	     -0.10229684	    -15.52228551	     -0.75747108	     -6.65577974	      1.28631656	      0.02245046	     -0.57273611	    -10.27390864	     -6.95800046	    -15.14649967	      0.19309939	      4.01197690	      2.74516191	      0.04791211	      2.44931372	     -3.50855320	     -6.95800046	    -19.84703376	      0.81638156	     -2.27609193	     24.59639275	     -7.94138610	     33.75065490	     41.80127228	     77.50595509	     24.13589832	     -4.13774949	     32.41269166	     29.07388176	     70.07277782
      0.01250000	      9.21080406	      0.73591350	     -0.19563455	     -0.87012254	      1.29052751	     -0.10425495	    -16.47146465	     -1.17344050	     -7.09962559	      1.09803066	      0.01916425	      0.61616404	     -8.34032017	     -7.19881457	    -16.32695568	      0.60931401	      4.66737763	      2.14533357	      0.03744313	      2.02003639	     -3.83153522	     -7.19881457	    -20.87082089	      0.47090853	     -1.80979965	     24.43767366	     -8.45152641	     33.49673229	     42.32904004	     80.28411635	     24.98963178	     -4.52444099	     36.47362104	     28.77240236	     71.29244601
      0.01666670	      9.36210696	      0.78911479	      0.12031327	     -0.86898206	      1.28855396	     -0.10401720	    -16.80947654	     -1.18801220	     -7.27619990	      1.00757696	      0.01758554	      1.30340880	     -7.30650042	     -7.29461311	    -16.69984357	      0.64277115	      5.25085512	      1.69980251	      0.02966715	      2.12584343	     -3.92053515	     -7.29461311	    -20.95011357	      0.55309804	     -1.62110974	     24.03090564	     -8.67996060	     33.57982950	     42.40442082	     80.86826073	     25.07741878	     -4.60575101	     39.10118544	     28.71558176	     71.50678787
      0.02083330	      9.36808889	      0.98482180	      0.18044872	     -0.86735306	      1.29415189	     -0.10395421	    -16.99412095	     -1.40041045	     -7.07707111	      0.78942920	      0.01377814	      1.68035105	     -7.15413115	     -7.29576493	    -16.84381897	      0.84966253	      5.74638089	      1.29402846	      0.02258506	      2.16762807	     -3.61388687	     -7.29576493	    -20.91084731	      0.41080168	     -1.66611538	     23.61668696	     -8.65209421	     33.57344972	     42.25339215	     80.89644823	     24.65528812	     -4.54146365	     39.28866487	     28.74729608	     71.54918354
      0.02500000	      9.64375357	      0.89588573	      0.11738929	     -0.86966872	      1.29428164	     -0.10265518	    -17.33148619	     -1.31400973	     -7.05460687	      0.68512942	      0.01195776	      2.29068820	     -6.81422011	     -7.41897982	    -17.21303412	      0.70883348	      5.60061494	      0.98824775	      0.01724818	      2.62914624	     -2.04788251	     -7.41897982	    -21.50397127	      0.47666578	     -1.49911345	     23.79228340	     -8.53375433	     34.11727682	     41.98625491	     75.40084437	     24.84114452	     -4.73677732	     40.92504998	     29.20466699	     68.60619116
      0.02916670	      9.88744016	      0.89545642	      0.52518180	     -0.86718871	      1.29023390	     -0.10408464	    -17.84321018	     -1.22201076	     -7.73537721	      0.64805104	      0.01131062	      2.80614404	     -6.63097227	     -7.45544037	    -17.56505035	      0.57784284	      6.35298244	      0.86770030	      0.01514423	      2.65884421	     -2.07810822	     -7.45544037	    -21.66823868	      0.55432551	     -1.51370251	     23.11894937	     -8.39103418	     31.97700698	     42.11476107	     81.00440441	     25.10541091	     -4.52749754	     42.23839108	     28.77754922	     70.77280947
      0.03333330	     10.00317678	      0.88900794	      0.63165187	     -0.86773938	      1.29474059	     -0.10572014	    -18.12847373	     -1.23728257	     -8.00111318	      0.70906591	      0.01237553	      3.03164322	     -6.97624599	     -7.45558574	    -17.74569885	      0.54447176	      6.44420552	      0.83470591	      0.01456837	      2.56223818	     -2.01744520	     -7.45558574	    -21.82081101	      0.66440648	     -1.62377105	     22.84389048	     -8.35214294	     31.97451153	     42.01605631	     80.98789103	     24.95192570	     -4.35126488	     42.27714460	     28.79031145	     70.77641863
